<?xml version="1.0" standalone="no"?>
<!DOCTYPE svg PUBLIC "-//W3C//DTD SVG 20010904//EN"
 "http://www.w3.org/TR/2001/REC-SVG-20010904/DTD/svg10.dtd">
<svg version="1.0" xmlns="http://www.w3.org/2000/svg"
 width="563.000000pt" height="563.000000pt" viewBox="0 0 563.000000 563.000000"
 preserveAspectRatio="xMidYMid meet">
<metadata>
Created by potrace 1.14, written by Peter Selinger 2001-2017
</metadata>
<g transform="translate(0.000000,563.000000) scale(0.100000,-0.100000)"
fill="#000000" stroke="none">
<path d="M2708 5425 c-2 -1 -41 -5 -88 -9 -91 -6 -142 -13 -250 -33 -128 -23
-395 -99 -465 -132 -11 -6 -45 -20 -75 -32 -30 -12 -106 -49 -169 -81 -553
-286 -994 -774 -1221 -1353 -29 -72 -76 -212 -85 -254 -3 -9 -12 -45 -20 -81
-9 -36 -18 -75 -21 -87 -2 -13 -6 -35 -9 -50 -3 -16 -8 -44 -11 -63 -3 -19 -7
-46 -10 -60 -25 -138 -25 -520 0 -700 10 -68 19 -127 21 -130 2 -3 6 -23 9
-44 41 -259 198 -633 380 -909 217 -327 488 -584 851 -805 59 -35 251 -129
344 -167 168 -69 312 -109 531 -150 200 -37 643 -42 802 -9 13 2 43 7 68 10
78 10 341 80 445 119 376 140 670 328 945 604 340 341 567 742 684 1208 56
226 74 394 71 658 -4 289 -37 501 -120 760 -98 308 -282 637 -502 894 -48 55
-219 228 -264 266 -103 87 -294 225 -377 273 -310 177 -624 287 -952 333 -41
5 -86 12 -100 15 -27 5 -406 14 -412 9z"/>
</g>
</svg>
